<?xml version="1.0" encoding="UTF-8" standalone="no"?>
<!-- Created with Inkscape (http://www.inkscape.org/) -->

<svg
   width="187.05214mm"
   height="51.264mm"
   viewBox="0 0 187.05213 51.264"
   version="1.1"
   id="svg1"
   xml:space="preserve"
   inkscape:version="1.4.2 (f4327f4, 2025-05-13)"
   sodipodi:docname="Mateuszek-logonapisbok.svg"
   xmlns:inkscape="http://www.inkscape.org/namespaces/inkscape"
   xmlns:sodipodi="http://sodipodi.sourceforge.net/DTD/sodipodi-0.dtd"
   xmlns:xlink="http://www.w3.org/1999/xlink"
   xmlns="http://www.w3.org/2000/svg"
   xmlns:svg="http://www.w3.org/2000/svg"><sodipodi:namedview
     id="namedview1"
     pagecolor="#505050"
     bordercolor="#eeeeee"
     borderopacity="1"
     inkscape:showpageshadow="0"
     inkscape:pageopacity="0"
     inkscape:pagecheckerboard="0"
     inkscape:deskcolor="#505050"
     inkscape:document-units="mm"
     inkscape:zoom="1.4142136"
     inkscape:cx="371.58461"
     inkscape:cy="130.4612"
     inkscape:window-width="1920"
     inkscape:window-height="1057"
     inkscape:window-x="1912"
     inkscape:window-y="46"
     inkscape:window-maximized="1"
     inkscape:current-layer="layer2"><inkscape:page
       x="0"
       y="1.3596943e-07"
       width="187.05212"
       height="51.264"
       id="page1"
       margin="0"
       bleed="0" /></sodipodi:namedview><defs
     id="defs1"><linearGradient
       id="linearGradient243"
       inkscape:collect="always"><stop
         style="stop-color:#a2e55e;stop-opacity:1;"
         offset="0"
         id="stop243" /><stop
         style="stop-color:#78d666;stop-opacity:1;"
         offset="1"
         id="stop244" /></linearGradient><linearGradient
       id="linearGradient189"
       inkscape:collect="always"><stop
         style="stop-color:#6dddd1;stop-opacity:1;"
         offset="0"
         id="stop189" /><stop
         style="stop-color:#29bdd8;stop-opacity:1;"
         offset="1"
         id="stop190" /></linearGradient><linearGradient
       id="linearGradient31"
       inkscape:collect="always"><stop
         style="stop-color:#9ce569;stop-opacity:1;"
         offset="0"
         id="stop31" /><stop
         style="stop-color:#6cc88c;stop-opacity:1;"
         offset="1"
         id="stop32" /></linearGradient><linearGradient
       id="linearGradient28"
       inkscape:collect="always"><stop
         style="stop-color:#2b8fbb;stop-opacity:1;"
         offset="0"
         id="stop28" /><stop
         style="stop-color:#12307a;stop-opacity:1;"
         offset="1"
         id="stop29" /></linearGradient><linearGradient
       id="linearGradient20"
       inkscape:collect="always"><stop
         style="stop-color:#6dddd1;stop-opacity:1;"
         offset="0"
         id="stop20" /><stop
         style="stop-color:#4e987e;stop-opacity:1;"
         offset="1"
         id="stop21" /></linearGradient><inkscape:path-effect
       effect="fillet_chamfer"
       id="path-effect17"
       is_visible="true"
       lpeversion="1"
       nodesatellites_param="F,0,0,1,0,0,0,1 @ F,0,0,1,0,0,0,1 @ F,0,0,1,0,4.2990283,0,1 @ F,0,0,1,0,0,0,1 @ F,0,0,1,0,0,0,1 @ F,0,0,1,0,0,0,1"
       radius="0"
       unit="px"
       method="auto"
       mode="F"
       chamfer_steps="1"
       flexible="false"
       use_knot_distance="true"
       apply_no_radius="true"
       apply_with_radius="true"
       only_selected="false"
       hide_knots="false" /><linearGradient
       id="swatch11"
       inkscape:swatch="solid"><stop
         style="stop-color:#b0ee55;stop-opacity:1;"
         offset="0"
         id="stop11" /></linearGradient><linearGradient
       id="linearGradient8"
       inkscape:collect="always"><stop
         style="stop-color:#9ce569;stop-opacity:1;"
         offset="0"
         id="stop8" /><stop
         style="stop-color:#6cc88c;stop-opacity:1;"
         offset="1"
         id="stop9" /></linearGradient><linearGradient
       id="swatch2"
       inkscape:swatch="solid"><stop
         style="stop-color:#000000;stop-opacity:1;"
         offset="0"
         id="stop2" /></linearGradient><linearGradient
       inkscape:collect="always"
       xlink:href="#linearGradient8"
       id="linearGradient9"
       x1="175.85286"
       y1="61.70853"
       x2="74.463341"
       y2="145.52426"
       gradientUnits="userSpaceOnUse" /><clipPath
       clipPathUnits="userSpaceOnUse"
       id="clipPath188"><path
         id="path189"
         style="fill:#ff0000;fill-opacity:1;fill-rule:nonzero;stroke:none;stroke-width:0.264583"
         d="m 43.654184,41.596426 v 35.04179 c 0.232463,-0.03089 0.51967,0.0033 0.855244,0.128675 1.244156,0.464701 2.493341,0.908746 3.763079,1.300694 0.104989,0.03207 0.210002,0.0639 0.315224,0.09509 0.557747,-1.001887 1.136624,-1.992307 1.725994,-2.976046 0.625771,-1.071605 1.263026,-2.136 1.902727,-3.199289 0.247751,-0.436565 0.494117,-0.875586 0.727086,-1.320848 -0.04813,-0.124656 -0.09965,-0.246226 -0.156062,-0.364318 0.113173,-0.224324 0.216958,-0.454012 0.339513,-0.673346 0.103402,-0.185047 0.244875,-0.346223 0.357085,-0.526066 0.167682,-0.268753 0.328543,-0.542149 0.49816,-0.80977 0.359645,-0.843156 0.768717,-1.664602 1.205611,-2.470132 0.589933,-1.008438 1.256059,-1.972164 1.955437,-2.907315 0.615355,-0.782259 1.231995,-1.562743 1.858285,-2.336292 0.579724,-0.745707 1.24268,-1.417577 1.942518,-2.049489 0.791216,-0.715111 1.578391,-1.435108 2.396236,-2.119768 0.894284,-0.756764 1.873417,-1.392163 2.870626,-1.999877 0.716701,-0.668771 1.453076,-1.315714 2.218468,-1.930114 0.820605,-0.626113 1.384377,-1.079365 2.252059,-1.645378 1.336318,-0.87172 2.780419,-1.574495 4.258654,-2.167826 0.342358,-0.129191 0.685935,-0.254929 1.030428,-0.377754 0.255765,-0.776578 0.861872,-1.427297 1.338421,-2.057241 1.545344,-1.607323 3.386741,-2.913536 5.411555,-3.848343 0.440034,-0.203153 0.894358,-0.373751 1.341519,-0.560689 0.203801,-0.07822 0.40852,-0.153602 0.613916,-0.226344 z m 81.599666,0 c -0.0734,0.265192 -0.15888,0.554152 -0.25579,0.869715 1.5732,0.673359 2.99995,1.574763 4.43383,2.560569 0.005,0.0031 0.009,0.0067 0.014,0.0098 0.47521,-0.221732 0.93767,-0.484825 1.44849,-0.590661 0.39916,-0.0827 0.81862,0.02225 1.21853,0.101285 1.36076,0.268898 2.7717,1.326793 3.95738,1.99626 1.01831,0.684511 1.28274,0.832593 2.24637,1.600419 1.41815,1.129988 2.70148,2.416763 3.9517,3.726387 0.84583,0.897988 1.67912,1.8102 2.54041,2.694411 0.16929,-0.0269 0.32703,-0.03711 0.47491,-0.03308 1.05856,0.02886 1.61556,0.795914 2.34094,1.545127 1.57594,2.048224 3.15754,4.092006 4.76664,6.114354 1.06376,1.330338 2.15834,2.63515 3.24269,3.948597 0.27659,0.03464 0.55686,0.113972 0.83509,0.24443 0.58076,0.272312 0.88744,0.926417 1.33119,1.389578 0.0912,0.377063 0.22927,0.745781 0.27337,1.131197 0.0431,0.377145 0.0161,0.770896 -0.0527,1.170991 0.23642,-0.410017 0.46913,-0.82214 0.7338,-1.216465 1.1546,-1.326742 1.14775,-1.588103 4.40232,0.429948 0.46544,0.288595 0.099,1.09447 0.0682,1.641242 -0.004,0.06386 -0.018,0.144169 -0.0413,0.236162 2.13917,1.554819 2.041,1.379207 0.75861,3.007053 -0.67356,0.788604 -1.36601,1.560769 -2.04329,2.346108 -0.1259,0.144177 -0.25238,0.287682 -0.37982,0.430467 0.0651,0.04301 0.11212,0.172651 0.17673,0.313158 0.009,0.01966 -0.0226,0.03677 -0.0346,0.05478 -0.01,0.01455 -0.0778,0.109468 -0.0848,0.11989 -0.007,0.0096 -0.0141,0.01937 -0.0212,0.02894 0.0108,0.0046 0.0213,0.0097 0.0315,0.01498 0.0679,-0.08212 0.13784,-0.120073 0.19792,-0.123505 0.005,-2.64e-4 0.009,-1.42e-4 0.0139,0 0.0859,0.0027 0.14932,0.07757 0.15348,0.192752 0.0737,-0.08278 0.14646,-0.165986 0.22169,-0.247528 0.0902,-0.09777 0.18315,-0.136374 0.25942,-0.133842 0.16779,0.0056 0.25578,0.210409 0.0568,0.425296 -0.0928,0.100394 -0.18218,0.204052 -0.27388,0.305406 -0.0939,0.107244 -0.1886,0.213879 -0.28216,0.321429 -0.005,0.01675 -0.0124,0.03435 -0.0228,0.05271 -0.0239,0.0431 -0.0502,0.0844 -0.078,0.125056 -0.0217,0.03178 -0.0437,0.064 -0.0641,0.09664 -0.0197,0.03331 -0.0407,0.0656 -0.0615,0.09818 -0.0229,0.03445 -0.0446,0.06947 -0.0651,0.105421 -0.024,0.0422 -0.0479,0.085 -0.0729,0.126606 -0.02,0.03556 -0.043,0.06923 -0.0646,0.10387 -0.0266,0.04321 -0.0538,0.08593 -0.0811,0.128675 -0.0291,0.04614 -0.0601,0.09087 -0.0915,0.135392 -0.0208,0.03109 -0.0431,0.06108 -0.0656,0.09095 -0.0144,0.0177 -0.0281,0.03594 -0.0403,0.05529 -0.0174,0.02754 -0.0373,0.05348 -0.0553,0.08061 -0.023,0.03322 -0.046,0.06665 -0.0677,0.100769 -0.0252,0.03786 -0.0499,0.07645 -0.076,0.113689 -0.0186,0.02876 -0.0373,0.05711 -0.0553,0.0863 -0.0156,0.02455 -0.0314,0.04895 -0.0455,0.07441 -0.0132,0.02646 -0.028,0.05208 -0.0439,0.077 -0.0147,0.02582 -0.0294,0.05123 -0.045,0.07648 -0.0193,0.02998 -0.0404,0.05906 -0.0615,0.08785 -0.0168,0.0227 -0.0324,0.046 -0.0491,0.06873 -0.008,0.01103 -0.0167,0.02223 -0.0248,0.03359 -0.003,0.0053 -0.006,0.01074 -0.009,0.01601 -0.0234,0.03737 -0.0461,0.0753 -0.0677,0.113686 -0.0214,0.0389 -0.0467,0.0751 -0.0703,0.112654 -0.0259,0.0371 -0.0499,0.07513 -0.0744,0.113173 -0.0262,0.0423 -0.0527,0.08455 -0.0801,0.12609 -0.028,0.04638 -0.058,0.09179 -0.0879,0.136943 -0.0385,0.05939 -0.0729,0.121338 -0.10852,0.182417 -0.0427,0.07089 -0.0853,0.14134 -0.13022,0.210841 -0.0342,0.05449 -0.0698,0.108445 -0.10594,0.161748 -0.0344,0.05044 -0.0679,0.101375 -0.10129,0.152445 -0.0313,0.04891 -0.0639,0.09656 -0.0956,0.145211 -0.0267,0.04035 -0.0515,0.08183 -0.076,0.123505 -0.0297,0.04945 -0.0606,0.09858 -0.0915,0.147277 -0.0293,0.04693 -0.0628,0.09091 -0.0941,0.136427 -0.0316,0.04467 -0.0641,0.08858 -0.0977,0.131774 -0.0351,0.04699 -0.0717,0.09336 -0.10645,0.140559 -0.0314,0.04155 -0.0614,0.08383 -0.0925,0.125574 -0.009,0.01469 -0.0199,0.02911 -0.03,0.04341 -0.006,0.01064 -0.0126,0.02119 -0.0186,0.03204 -0.0152,0.02442 -0.0301,0.04886 -0.046,0.07286 -0.0137,0.01953 -0.028,0.0385 -0.0419,0.05788 -0.0111,0.01662 -0.0215,0.03328 -0.0315,0.05064 -0.0138,0.02699 -0.0302,0.05295 -0.0455,0.07906 -0.0185,0.0318 -0.0371,0.0635 -0.0568,0.09457 -0.018,0.02959 -0.036,0.059 -0.0543,0.08836 -0.0204,0.03205 -0.0406,0.0643 -0.0605,0.09664 -0.0245,0.03717 -0.0515,0.07252 -0.0791,0.107487 -0.0272,0.03492 -0.0536,0.07058 -0.0796,0.106452 -0.0266,0.03728 -0.0539,0.07422 -0.0816,0.110588 -0.0289,0.03735 -0.0567,0.07502 -0.0858,0.112139 -0.0281,0.03511 -0.0569,0.07005 -0.0853,0.104902 -0.0191,0.02169 -0.01,0.01169 -0.0258,0.03049 -0.13804,0.161933 -0.30197,0.02236 -0.16382,-0.139525 0.016,-0.01852 0.008,-0.0097 0.0233,-0.02687 0.0276,-0.03385 0.0549,-0.0677 0.0822,-0.101804 0.0287,-0.03635 0.0564,-0.07348 0.0847,-0.110069 0.0267,-0.0349 0.0525,-0.07018 0.078,-0.105937 0.0277,-0.03823 0.0562,-0.07596 0.0853,-0.113172 0.0225,-0.02846 0.0442,-0.05738 0.0646,-0.08733 0.009,-0.01513 0.0185,-0.03042 0.0279,-0.04547 -0.01,-0.03762 7.9e-4,-0.08786 0.0419,-0.142626 0.0196,-0.02606 0.0401,-0.0516 0.0584,-0.07855 0.0211,-0.02685 0.0423,-0.05327 0.0641,-0.07958 -0.002,0.0013 -0.003,0.0027 -0.004,0.0041 -0.0206,0.02011 -0.0327,0.02781 -0.0543,0.04341 -0.011,0.0079 -0.0216,0.01455 -0.032,0.02016 -0.0138,0.02125 -0.0277,0.04249 -0.0419,0.06356 -0.033,0.05203 -0.0639,0.105468 -0.0951,0.158644 -0.21518,0.367231 -0.58621,0.149667 -0.37103,-0.217557 0.0357,-0.06092 0.0713,-0.121494 0.10955,-0.180869 0.0494,-0.07337 0.097,-0.148278 0.14056,-0.225308 0.0439,-0.0725 0.0876,-0.144891 0.13694,-0.21394 0.003,-0.0044 0.006,-0.009 0.009,-0.01344 -0.0193,-0.0084 -0.0436,-0.03276 -0.0811,-0.07493 -0.0448,0.05748 -0.0905,0.114028 -0.13798,0.169498 -0.27668,0.323389 -0.61564,0.06035 -0.33951,-0.263552 0.0825,-0.09674 0.16044,-0.196963 0.23564,-0.299204 0.01,-0.05945 0.0211,-0.118377 0.0362,-0.176733 0.0104,-0.03841 0.0219,-0.07646 0.0341,-0.114205 -0.0313,0.02413 -0.0634,0.04682 -0.0977,0.06563 -0.0364,0.02 -0.0723,0.04756 -0.11369,0.05116 -0.0522,0.0045 -0.11239,0.01344 -0.16226,-5.29e-4 -0.1171,0.161017 -0.23574,0.321352 -0.35553,0.480589 -0.20063,0.257376 -1.81653,2.215258 -2.19263,1.980242 -1.72359,-1.07692 -2.65493,-1.58805 -3.07165,-1.999361 -2.47909,0.331248 -3.74031,-2.467208 -0.81132,-4.828646 0.0145,-0.01167 0.029,-0.02341 0.0434,-0.03514 -0.008,-0.06989 -0.0149,-0.139586 -0.0222,-0.208775 -0.0456,-0.429228 -2.6e-4,-0.864711 0.0398,-1.294492 0.11259,-1.208347 0.47152,-2.379348 0.8015,-3.540353 0.0336,-0.118004 0.0675,-0.235812 0.10232,-0.353467 -0.13027,-0.182319 -0.26149,-0.364091 -0.39688,-0.542603 -0.93791,-1.236469 -1.93605,-2.42752 -2.92488,-3.623034 -0.11389,-0.137814 -0.22784,-0.27536 -0.3421,-0.412896 -0.38172,0.268854 -0.78124,0.504383 -1.21647,0.673346 -0.39855,0.154723 -0.75251,-0.409218 -1.10432,-0.652158 -0.38585,-0.266443 -1.55657,-1.312143 -1.86759,-1.578716 -0.744,-0.637667 -1.49596,-1.266592 -2.24172,-1.902209 -0.9318,-0.787971 -1.871,-1.567129 -2.78123,-2.380215 -0.25072,-0.223951 -0.81457,-0.729538 -1.05161,-1.010793 -0.15621,-0.185367 -0.28739,-0.390697 -0.43098,-0.58601 0.17923,-0.760216 0.12636,-1.642697 0.30954,-2.400887 -1.23159,-0.759868 -2.45297,-1.535438 -3.66231,-2.330606 -0.50204,-0.338934 -0.99786,-0.686078 -1.49086,-1.037146 -0.0162,0.384641 -0.0386,0.810067 -0.0651,1.281057 -0.0234,0.414372 -0.83098,0.101232 -1.24385,0.05891 -0.60045,-0.06151 -1.18318,-0.239786 -1.77302,-0.367937 -1.07472,-0.233479 -4.17617,-0.944449 -5.12837,-1.161685 -3.01864,-0.695084 -6.04111,-1.380265 -9.04389,-2.141987 -0.69997,-0.177557 -1.79346,0.100311 -2.09341,-0.556557 -0.0325,-0.07123 -0.0633,-0.143023 -0.0925,-0.21549 l -0.0403,-0.0057 c 0.0137,0.0013 0.0271,0.0028 0.0403,0.0041 -0.0821,-0.203991 -0.15137,-0.412377 -0.20929,-0.624768 -1.02031,-0.180168 -2.06954,-0.36779 -2.4753,-0.448551 -0.50433,-0.100391 -1.42693,0.167532 -1.52032,-0.323495 -0.37321,-0.06056 -0.40653,-0.221795 -0.12196,-0.851628 -0.0822,-0.589142 -0.14753,-1.093645 -0.19275,-1.524971 -0.11412,-0.02466 -0.22602,-0.04944 -0.33538,-0.0739 0.006,0.06529 0.0127,0.13099 0.0181,0.196371 0.0103,0.125039 -0.24285,0.06213 -0.36586,0.08682 -1.14995,0.230751 -2.32126,0.338695 -3.4804,0.510561 -1.98655,0.292944 -3.96697,0.627158 -5.943829,0.979268 -1.317998,0.245351 -2.633014,0.508227 -3.934129,0.833024 -1.325632,0.321043 -2.638817,0.690285 -3.961514,1.02216 -1.757815,0.464944 -3.52148,0.905835 -5.282883,1.357024 -0.672412,0.174884 -1.344131,0.352684 -2.014347,0.5364 -0.03145,0.01347 -0.06266,0.02725 -0.09405,0.04083 -1.501698,0.653356 -3.00767,1.309229 -4.378029,2.217951 -1.58107,0.98561 -3.173007,1.963923 -4.621421,3.141928 -1.682755,1.388628 -3.269901,2.884934 -4.873604,4.363042 -2.881085,2.675665 -5.803897,5.305753 -8.836671,7.809857 -1.224772,0.978429 -2.44643,1.970778 -3.765661,2.822567 -0.07633,0.04929 -0.1628,0.105088 -0.257349,0.164333 -0.278122,0.53286 -0.566476,1.060969 -0.869715,1.579748 -0.638429,1.061066 -1.273596,2.123149 -1.898076,3.192571 -0.24978,0.416351 -0.497207,0.833882 -0.742071,1.253154 0.456551,0.147148 0.905139,0.35401 1.364258,0.482139 0.02262,0.04271 0.04544,0.08525 0.06873,0.127641 1.014163,0.132559 2.031021,0.243861 3.049944,0.33538 1.058649,0.135319 2.105467,0.04279 3.142959,-0.177765 0.738103,-0.183814 1.472288,-0.395971 2.129071,-0.787033 0.752729,-0.44982 1.407361,-1.052496 2.041218,-1.653645 1.567008,-1.515552 2.983793,-3.175844 4.430739,-4.803842 l 0.703315,-0.807188 c 0.38028,-0.436298 0.779568,-0.616408 1.11156,-0.614947 0.730377,0.0032 1.135374,0.884507 0.29869,1.844331 l -0.715203,0.820621 c -1.483098,1.668677 -2.936158,3.369813 -4.544425,4.921147 -0.741548,0.698055 -1.506027,1.394375 -2.387968,1.912546 -0.837512,0.476951 -1.744519,0.78414 -2.683557,0.998905 -1.219311,0.252651 -2.45092,0.363673 -3.693832,0.209807 -0.697537,-0.06279 -1.393831,-0.134422 -2.089277,-0.215493 -1.3e-5,0.01037 -1.27e-4,0.02069 0,0.03101 0.01315,1.071824 -0.35719,2.080858 -1.10381,2.858741 -0.627626,0.558789 -1.308047,1.049821 -2.029333,1.47226 -0.111533,0.23095 -0.240983,0.506844 -0.439248,0.917258 -0.07156,0.160287 -0.142203,0.32059 -0.211873,0.481624 -0.13802,1.143603 -0.279879,2.288352 -0.530717,3.413744 -0.178279,0.973039 -0.399034,1.937975 -0.608232,2.904733 -0.174117,0.801653 -0.299181,1.580626 -0.28112,2.408121 -0.03107,1.382766 0.0067,2.764933 0.07234,4.14651 0.0618,1.14879 0.147172,2.29483 0.357603,3.42771 0.278548,1.63926 0.69334,3.24912 1.123444,4.85448 0.654958,2.51955 1.288757,5.04487 1.777154,7.60314 0.433144,1.98845 0.935511,3.96081 1.379243,5.94693 0.197655,0.80314 0.381879,1.6153 0.679546,2.38848 0.326972,0.86038 0.658884,1.71741 0.919324,2.60139 0.437856,1.27325 0.846862,2.55817 1.333251,3.81374 0.338156,0.75234 0.702918,1.49153 1.264004,2.10788 0.861195,1.00168 1.790716,1.95177 2.535764,3.04735 0.430202,0.66568 0.581208,0.85299 0.927074,1.58491 0.554622,1.17369 0.866121,2.44383 0.985988,3.73311 0.0089,0.35842 0.03979,0.71659 0.02635,1.07487 -0.01212,0.32489 -0.04194,0.655 -0.09354,0.9834 0.133022,0.31014 0.264848,0.6343 0.333312,0.96378 4.407752,0.37442 8.815766,0.76163 13.201779,1.34409 0.279303,0.0334 0.775865,-0.17406 0.838193,0.10026 0.0035,0.0154 0.0069,0.0307 0.01035,0.046 0.440378,0.0628 0.488114,0.33075 0.285252,1.22007 0.889342,3.72274 1.000805,3.58661 -0.960662,3.64578 -0.04165,0.022 -0.09961,0.0187 -0.166915,0.006 -0.04725,0.002 -0.09576,0.003 -0.145211,0.005 -0.757981,0.0371 -1.517822,0.0784 -2.26808,0.19844 -0.759481,0.13412 -1.500508,0.36018 -2.260844,0.49299 -0.05369,0.0124 -0.107055,0.0248 -0.160713,0.0372 0.06232,0.0486 0.08675,0.11591 0.07338,0.17931 0.06933,0.001 0.138398,0.002 0.20774,0.004 0.304453,0.006 0.608904,0.0113 0.913122,0.0248 0.08088,-0.0142 0.167383,-0.0298 0.268719,-0.0475 0.609356,-0.11117 1.214101,-0.24531 1.819526,-0.37569 0.284694,-0.0619 0.568891,-0.125 0.855245,-0.1788 0.219323,-0.0389 0.438779,-0.0784 0.658876,-0.11265 0.168984,-0.0276 0.338357,-0.0533 0.507463,-0.0801 0.291586,-0.0442 0.584237,-0.0779 0.877464,-0.10904 0.495345,-0.0507 0.99215,-0.0856 1.489315,-0.11214 0.530726,-0.0248 1.061945,-0.0432 1.593184,-0.0522 0.389032,-0.005 0.777838,0.0123 1.163754,0.0615 0.189163,0.0349 0.40573,0.0665 0.555521,0.19998 0.0315,0.0281 0.05645,0.0625 0.08475,0.0941 0.01974,0.0397 0.04588,0.0767 0.05943,0.11886 0.06565,0.20447 -0.01283,0.43389 -0.147793,0.59221 -0.04919,0.0577 -0.109929,0.1048 -0.164849,0.1571 -0.07811,0.0496 -0.15094,0.10813 -0.234095,0.14883 -0.234001,0.11443 -0.587225,0.22164 -0.831475,0.29094 -0.314431,0.0892 -0.68803,0.17766 -1.007171,0.24546 -0.16932,0.036 -0.339703,0.0673 -0.509532,0.10077 -0.647012,0.10979 -0.328191,0.0585 -0.957045,0.15244 -0.420963,0.0628 -0.48401,-0.36249 -0.06305,-0.42529 0.616696,-0.092 0.303861,-0.0421 0.936895,-0.14935 0.165743,-0.0326 0.332394,-0.0627 0.497644,-0.0977 0.312711,-0.0663 0.667893,-0.15091 0.976167,-0.23771 0.185733,-0.0523 0.5407,-0.15886 0.73174,-0.24546 0.06049,-0.0274 0.113906,-0.0679 0.171048,-0.1018 0.03348,-0.0279 0.06975,-0.0526 0.100769,-0.0832 0.05299,-0.0523 0.08923,-0.12344 0.106971,-0.19534 -0.0019,-0.006 -0.0016,-0.0136 -0.0057,-0.0186 -0.01699,-0.0214 -0.05359,-0.0412 -0.07648,-0.0512 -0.08852,-0.0376 -0.184925,-0.0503 -0.278535,-0.0682 -0.365376,-0.0473 -0.733906,-0.0634 -1.102259,-0.0584 -0.525952,0.009 -1.051195,0.0272 -1.576647,0.0517 -0.489659,0.0261 -0.979226,0.0602 -1.467093,0.11007 -0.285938,0.0303 -0.57141,0.0636 -0.855763,0.10645 -0.169418,0.0267 -0.339204,0.053 -0.508495,0.0806 -0.215736,0.0337 -0.430451,0.072 -0.645441,0.11008 -0.282628,0.053 -0.563406,0.11531 -0.844391,0.17621 -0.610854,0.13153 -1.220697,0.26728 -1.835547,0.37931 -0.02524,0.004 -0.04936,0.009 -0.07286,0.0129 -0.05527,0.0305 -0.131101,0.0483 -0.225828,0.0439 -0.0065,-2.5e-4 -0.01265,-8e-4 -0.01913,-0.001 -0.02016,0.003 -0.04012,0.007 -0.05994,0.0103 -0.0083,0.0327 -0.02725,0.0634 -0.05684,0.0889 0.04886,0.002 0.09741,0.005 0.146243,0.007 0.107791,0.005 0.215151,0.009 0.32298,0.0114 0.02021,5.3e-4 0.03962,0.002 0.05787,0.004 0.0074,-5.3e-4 0.01484,0.001 0.02222,-0.002 0.0265,-0.002 0.05148,-0.003 0.07493,-0.002 0.351731,0.0165 0.358238,0.39551 -0.03927,0.43047 -0.278003,0.0245 -0.556866,0.0373 -0.83561,0.0496 -0.49857,0.0203 -0.997649,0.0287 -1.49655,0.0367 -0.574077,0.008 -1.147765,0.008 -1.721858,0.0124 -0.470543,0.006 -0.94084,0.0228 -1.411285,0.0336 -0.326062,0.006 -0.652171,0.0146 -0.978233,0.0217 -0.242207,0.004 -0.484685,0.008 -0.72657,0.0217 -0.188042,0.0119 -0.376174,0.0237 -0.564308,0.0341 -0.158076,0.008 -0.315968,0.0165 -0.473872,0.0274 -0.137281,0.0101 -0.274828,0.0162 -0.412377,0.0212 -0.06711,0.002 -0.03436,-7.9e-4 -0.09819,0.003 -0.03266,7.9e-4 -0.06266,0.001 -0.09043,-0.005 -0.38558,0.0552 -0.772369,0.10539 -1.159622,0.14986 -1.726109,0.20851 -3.45727,0.38221 -5.19658,0.42582 v -5.3e-4 c -4.26965,0.10698 -4.751689,-3.68184 -1.447975,-4.64675 -0.09746,-0.001 -0.195006,-0.002 -0.292489,-0.002 -0.78731,0.11257 -1.579049,0.2008 -2.371947,0.27387 -1.991524,0.18415 -3.053392,0.5895 -3.82819,-3.29798 -0.05543,-0.27817 0.0272,-0.51112 0.201538,-0.70591 -0.168333,-0.17628 -0.336529,-0.35234 -0.489894,-0.54157 -0.117131,-0.14447 -0.200848,-0.3137 -0.297138,-0.47283 -0.403148,-0.66642 -0.774517,-1.35258 -1.11466,-2.05311 -0.442968,-0.90684 -0.91076,-1.80182 -1.30328,-2.73265 -0.362032,-0.85853 -0.725948,-1.71654 -1.071771,-2.58176 -0.339828,-0.89557 -0.677461,-1.79144 -0.995805,-2.69491 -0.403291,-1.11833 -0.857064,-2.21791 -1.233516,-3.34605 -0.262686,-0.72965 -0.519261,-1.46198 -0.753441,-2.20143 -0.189529,0.0523 -0.398608,0.10326 -0.62942,0.15298 v 37.88605 H 167.38203 V 41.596426 Z M 79.006547,47.14906 c -0.08105,0.0042 -0.19984,0.05837 -0.205672,0.08165 -3.7e-5,2.65e-4 3e-6,0.0013 0,0.0016 1.4e-5,1.27e-4 1.1e-5,7.94e-4 0,0.0011 v 5.29e-4 5.29e-4 c 3e-6,5e-6 7.94e-4,0.0011 0.0011,0.0016 l 5.29e-4,5.29e-4 c 0.0026,0.0021 0.0081,0.0039 0.0155,0.0047 0.123804,0.009 0.248307,0.01029 0.372587,0.0031 -0.04267,-0.0274 -0.08491,-0.05469 -0.127122,-0.08217 -0.01355,-0.0088 -0.03368,-0.01204 -0.05685,-0.01085 z m 68.304353,9.987504 v 5.3e-4 h -5.3e-4 v 5.29e-4 5.29e-4 c -2.6e-4,0.0013 -5.3e-4,0.004 -5.3e-4,0.0067 0.001,0.03628 0.006,0.09209 0.0124,0.160198 0.007,-0.01196 0.0137,-0.02384 0.0207,-0.03566 0.0175,-0.02967 -0.0161,-0.11956 -0.0289,-0.131773 l -5.3e-4,-5.3e-4 -5.3e-4,-5.29e-4 h -5.3e-4 -5.3e-4 -5.3e-4 z M 43.654184,78.380746 v 17.950842 c 0.307202,-2.022708 0.798295,-4.014402 1.324983,-5.994467 0.131942,-0.489132 0.26943,-0.976831 0.409794,-1.463476 0.07204,-0.88814 0.13634,-1.776982 0.196369,-2.665987 0.01527,-0.227121 0.02625,-0.454361 0.03359,-0.681611 -0.392149,-0.717156 -0.528039,-1.589183 -0.559657,-2.559535 0.02902,-0.91142 0.07672,-1.841449 0.320913,-2.726965 0.06941,-0.251703 -0.006,-0.653441 0.238228,-0.745691 0.159539,-0.06025 0.320731,-0.114207 0.48369,-0.162782 -0.687676,-0.233863 -1.3702,-0.481748 -2.046385,-0.749308 -0.150056,-0.05938 -0.283739,-0.127275 -0.401526,-0.20102 z m 1.845881,2.370397 -5.29e-4,5.29e-4 c -0.0034,0.0082 -0.0093,0.05616 -0.0016,0.07235 0.0027,0.0057 0.0056,0.01138 0.0083,0.01707 -0.0016,-0.02844 -0.0034,-0.05685 -0.0052,-0.08526 -1.1e-5,-5.29e-4 -2.65e-4,-0.0024 -5.29e-4,-0.0031 v -5.29e-4 -5.29e-4 -5.29e-4 z m 4.000273,16.38763 c -0.05726,0.398002 -0.01,0.09501 0.0041,5.29e-4 -8.7e-5,-1e-5 -0.0019,-2.64e-4 -0.0026,-5.29e-4 h -5.29e-4 -5.29e-4 z m -4.185275,20.503137 c -0.0048,0.0699 -0.0093,0.13993 -0.01394,0.20981 -0.01273,0.18107 -0.02376,0.36193 -0.03307,0.54312 0.10074,0.0291 0.205427,0.0591 0.313674,0.0894 -0.08778,-0.28104 -0.176972,-0.56192 -0.26665,-0.84233 z" /></clipPath><linearGradient
       inkscape:collect="always"
       xlink:href="#linearGradient189"
       id="linearGradient190"
       x1="164.33908"
       y1="87.088043"
       x2="82.018814"
       y2="161.30367"
       gradientUnits="userSpaceOnUse" /><clipPath
       clipPathUnits="userSpaceOnUse"
       id="clipPath241"><path
         id="path242"
         style="fill:#ff0000;fill-opacity:1;fill-rule:nonzero;stroke:none;stroke-width:0.264583"
         d="M 43.591139,41.473953 V 166.3237 h 54.660228 c -0.356288,-0.0457 -0.713586,-0.0825 -1.072803,-0.10646 -1.329825,-0.12659 -2.668027,-0.11196 -4.001823,-0.16846 -1.091568,-0.0265 -2.183569,-0.0146 -3.274735,-0.0589 -0.886285,-0.0446 -1.770621,-0.12158 -2.647384,-0.26252 -1.489294,-0.24338 -2.964635,-0.56525 -4.413168,-0.99115 -1.991209,-0.56741 -4.012573,-1.11043 -5.883878,-2.0097 -0.474562,-0.37429 -1.545468,-0.53092 -1.423686,-1.12293 0.09037,-0.43931 0.17494,-0.85127 0.255799,-1.23765 -0.433829,0.15222 -0.866378,0.30761 -1.298112,0.46612 -1.230241,0.42235 -2.452875,0.89176 -3.729487,1.15652 -6.947503,1.44084 -8.846156,-4.954 -3.009119,-7.10241 -0.193575,-0.18978 -0.378701,-0.38796 -0.556038,-0.59324 -0.692486,0.2059 -1.645095,0.0172 -2.658753,-0.80977 -0.110186,-0.0899 -0.220025,-0.17985 -0.330213,-0.26975 -0.967722,-0.76516 -1.950654,-1.50986 -2.940389,-2.24638 -1.073242,-0.84413 -2.100887,-1.7415 -3.069579,-2.70474 -1.011084,-1.01208 -2.003116,-2.04403 -2.93574,-3.12953 -0.857666,-1.00126 -1.68506,-2.02658 -2.513542,-3.05201 -0.643686,-0.79771 -1.300025,-1.587 -1.900142,-2.41845 -0.284464,-0.42097 -0.408628,-0.58688 -0.659389,-1.03095 -0.401212,-0.71049 -0.703972,-1.4701 -0.919324,-2.25671 -0.139129,-0.54757 -0.202909,-0.74984 -0.29559,-1.31671 -0.151551,-0.92696 -0.180737,-1.86804 -0.12609,-2.80448 -0.317624,-0.42237 -0.586785,-0.87909 -0.846979,-1.33894 -0.479668,-0.89105 -0.930722,-1.80409 -1.162719,-2.7957 -0.196451,-0.79481 -0.391041,-1.59564 -0.413412,-2.41845 -0.0045,-0.21483 -0.01363,-0.39137 0.0011,-0.60565 0.0061,-0.0904 -0.004,-0.18648 0.03049,-0.27027 0.09346,-0.22707 0.108698,-0.59535 0.3483,-0.64905 0.0024,-5.3e-4 0.0044,-0.001 0.0067,-0.002 -0.03434,-0.0411 -0.06775,-0.0831 -0.100769,-0.12506 -0.119735,-0.15374 -0.223586,-0.31808 -0.331245,-0.48007 -0.117145,-0.17673 -0.220909,-0.36149 -0.321945,-0.54777 -0.08447,-0.13765 -0.161751,-0.27899 -0.227894,-0.42633 -0.159049,-0.37007 -0.124685,-0.69963 -0.0217,-1.07642 0.0085,-0.0306 0.01783,-0.0611 0.02791,-0.091 -0.04373,0.0497 -0.0874,0.0997 -0.131257,0.14934 -0.281834,0.31895 -0.603867,0.0341 -0.321945,-0.28474 0.0094,-0.0106 0.01905,-0.0214 0.02842,-0.032 -0.0465,-0.0546 -0.06036,-0.14211 -0.01704,-0.2434 -0.271716,0.1539 -0.478152,-0.12781 -0.196887,-0.38654 0.03268,-0.0301 0.06515,-0.0602 0.09663,-0.0915 0.0409,-0.0442 0.08075,-0.0899 0.122473,-0.13332 0.05315,-0.0526 0.106651,-0.10447 0.160716,-0.15607 0.0437,-0.0392 0.08324,-0.082 0.122989,-0.12505 0.04284,-0.0481 0.08797,-0.0944 0.132807,-0.14056 0.04262,-0.0443 0.08589,-0.0877 0.128675,-0.13178 0.04462,-0.0438 0.08667,-0.0901 0.130225,-0.13487 0.06407,-0.069 0.130675,-0.13524 0.194302,-0.20464 0.0791,-0.0892 0.157957,-0.17869 0.237197,-0.26769 0.08959,-0.0962 0.175133,-0.19567 0.264583,-0.29197 0.0822,-0.085 0.167182,-0.16736 0.250113,-0.25166 0.078,-0.0791 0.1538,-0.16053 0.22996,-0.24133 0.07788,-0.0842 0.154721,-0.16903 0.232027,-0.25373 0.07128,-0.0766 0.143441,-0.15194 0.217043,-0.22634 0.07037,-0.0747 0.135665,-0.15487 0.202054,-0.23307 0.06319,-0.079 0.128386,-0.15609 0.192752,-0.23409 0.06009,-0.0749 0.122176,-0.14792 0.186036,-0.21962 0.05523,-0.0697 0.110075,-0.13961 0.168466,-0.20671 0.05749,-0.0765 0.114993,-0.15299 0.170531,-0.23099 0.06853,-0.0961 0.139409,-0.19037 0.212905,-0.28267 0.06468,-0.0825 0.12886,-0.16547 0.192755,-0.24857 0.07323,-0.0925 0.145608,-0.18607 0.217559,-0.27957 0.04922,-0.0661 0.09907,-0.1323 0.140559,-0.2036 0.07528,-0.12931 0.170207,-0.18691 0.25218,-0.19121 v 5.3e-4 c 0.0055,-2.6e-4 0.01069,-1.8e-4 0.01603,0 0.142452,0.005 0.237604,0.17407 0.104902,0.40463 -0.04974,0.0864 -0.109641,0.16701 -0.168982,0.24701 -0.02914,0.0379 -0.05857,0.0759 -0.08785,0.11369 0.154374,0.0184 0.230254,0.21334 0.04341,0.4222 -0.05859,0.0655 -0.115678,0.13213 -0.172082,0.19947 0.004,-2.1e-4 0.0079,-2.4e-4 0.01188,-5.3e-4 0.140443,-0.005 0.316883,0.027 0.558623,0.10645 0.233561,0.0767 0.363545,0.33645 0.504362,0.53797 0.063,0.0902 0.06864,0.20951 0.09302,0.31677 0.03921,0.17246 0.04543,0.38216 0.05685,0.55551 0.0232,0.60117 0.01434,1.20313 0.02326,1.80454 0.01199,0.50563 0.08667,1.0055 0.199472,1.49759 0.188846,0.69305 0.429474,1.37087 0.66249,2.05 0.09355,0.27714 0.191717,0.55292 0.291457,0.82786 0.123055,-0.0191 0.238038,-0.0287 0.346747,-0.0289 0.707414,-0.002 1.138876,0.3838 1.660364,0.98238 0.108471,0.12448 0.151646,0.29355 0.227378,0.44028 0.207102,0.5561 0.3854,1.12369 0.520898,1.70171 0.155443,0.64355 0.324011,1.28367 0.502293,1.92133 0.244266,0.86965 0.539091,1.72392 0.862481,2.56727 0.337539,0.84306 0.772708,1.64207 1.193207,2.44585 0.416311,0.78445 0.828493,1.58054 1.379763,2.281 0.554598,0.64875 1.168476,1.24482 1.812808,1.80403 0.801928,0.71101 1.593432,1.43597 2.437577,2.09702 0.856758,0.63521 1.74938,1.22472 2.5585,1.92186 0.808508,0.7249 1.56133,1.50722 2.310971,2.29235 0.787773,0.81067 1.582486,1.61725 2.45618,2.33681 0.763958,0.63122 1.542762,1.24726 2.374017,1.78852 0.789969,0.50867 1.605573,0.98288 2.34456,1.56581 0.425979,0.37669 0.85558,0.75914 1.124995,1.27278 0.01757,0.0335 0.03437,0.0667 0.05064,0.0997 0.05403,-0.0173 0.108201,-0.0345 0.162264,-0.0517 1.153125,-0.38318 2.340938,-0.60611 3.546035,-0.73743 1.058701,-0.0979 2.134857,-0.15185 3.191537,0.004 0.276095,0.0409 0.548486,0.10396 0.82269,0.15606 1.897597,0.42767 3.389775,1.41591 4.168735,3.28455 0.192413,0.46157 0.218162,0.97595 0.327113,1.464 -0.02241,0.45737 -0.01556,0.91701 -0.06718,1.37201 -0.01312,0.11562 -0.03307,0.23967 -0.05891,0.36897 0.144184,0.0252 0.288451,0.0493 0.433049,0.0723 0.595944,0.0946 1.196588,0.14472 1.798857,0.17312 1.026165,0.0339 2.052973,0.0289 3.079398,0.0522 1.505169,0.0474 3.011141,0.0666 4.511871,0.19741 1.430797,0.10153 2.842223,0.35485 4.250383,0.61598 0.94277,0.15729 1.87403,0.37468 2.82102,0.50643 0.6127,0.085 1.23087,0.11142 1.84846,0.13022 1.10737,0.0245 2.2152,0.0265 3.3228,0.0305 1.2234,0.0322 2.44423,-0.0329 3.66437,-0.11213 1.18796,-0.0691 2.37431,-0.16174 3.55844,-0.27957 0.86441,-0.0588 1.71699,-0.18884 2.56522,-0.36019 0.82973,-0.18203 1.65057,-0.39877 2.4691,-0.62528 0.97437,-0.25663 1.93416,-0.55758 2.87579,-0.91519 0.91571,-0.32883 1.82264,-0.69458 2.67994,-1.15652 0.86104,-0.46255 1.67123,-1.0108 2.50166,-1.52446 1.17301,-0.69578 2.38792,-1.31899 3.62097,-1.90066 1.02245,-0.4655 2.01378,-0.99179 3.00033,-1.52807 0.65031,-0.36414 1.37076,-0.74332 1.97094,-1.10381 0.49094,-0.44415 0.95351,-0.91687 1.41025,-1.39578 0.84373,-0.87232 1.70549,-1.72709 2.56212,-2.58692 0.78647,-0.73451 1.5749,-1.46778 2.38693,-2.17403 0.75136,-0.64548 1.53191,-1.25567 2.26808,-1.91874 0.56603,-0.4911 1.12778,-0.98733 1.67949,-1.49448 0.42446,-0.38023 0.77325,-0.82584 1.13998,-1.25884 0.46996,-0.53138 0.91662,-1.08673 1.29191,-1.68931 0.4755,-0.79155 0.96198,-1.57687 1.43247,-2.37143 0.3505,-0.64186 0.73333,-1.26595 1.09864,-1.89962 0.17488,-0.72645 0.33906,-1.4551 0.49454,-2.18592 0.50319,-2.43693 0.92168,-4.8897 1.387,-7.33391 0.43902,-2.22604 0.82127,-4.46303 1.14618,-6.70864 0.27619,-1.96768 0.52055,-3.93947 0.64389,-5.92367 0.14225,-1.61277 0.3208,-3.22496 0.3576,-4.84466 -0.0262,-1.13482 -0.0503,-2.27198 -0.185,-3.40031 -0.13179,-0.97849 -0.39106,-1.93136 -0.55707,-2.90422 -0.25075,-1.615622 -0.41514,-3.242434 -0.55036,-4.871537 -0.22606,-2.445398 -0.37785,-4.899628 -0.7121,-7.333403 -0.33721,-2.179667 -0.68689,-4.3941 -1.54202,-6.440951 -0.57771,-1.237189 -1.18864,-2.469951 -2.14767,-3.463872 -0.1282,-0.128653 -0.61593,-0.625094 -0.78445,-0.772562 -0.71042,-0.621646 -1.47962,-1.172898 -2.22829,-1.746147 -1.51174,-1.083566 -2.98243,-2.227993 -4.29018,-3.556373 -0.88726,-0.909815 -1.73781,-1.853157 -2.52646,-2.85047 -0.70922,-0.923457 -1.38191,-1.871213 -1.62419,-3.03961 -0.27372,-1.347002 -0.30779,-2.544651 0.15968,-3.858678 0.24686,-0.673023 0.52862,-1.340347 0.89504,-1.95802 0.0332,-0.06098 0.0672,-0.121629 0.1018,-0.181385 0.007,-0.045 0.0155,-0.09126 0.0264,-0.139009 0.0295,-0.130027 0.075,-0.255286 0.11783,-0.381371 0.007,-0.02066 0.0133,-0.0414 0.0202,-0.06201 -0.02,0.02217 -0.0394,0.04457 -0.0589,0.06718 -0.0316,0.03668 -0.0635,0.06793 -0.0956,0.09405 -0.11176,0.120219 -0.22898,0.170431 -0.32815,0.169497 -0.0663,0.07078 -0.13219,0.141809 -0.19637,0.214458 -0.0382,0.04515 -0.0793,0.0877 -0.1204,0.130223 -0.41826,0.432866 -0.85639,0.0092 -0.43719,-0.422712 0.0348,-0.03583 0.0697,-0.07174 0.10181,-0.110072 0.10052,-0.113699 0.2054,-0.223488 0.30902,-0.334346 0.12785,-0.13775 0.25051,-0.28059 0.37982,-0.417028 0.13689,-0.142621 0.27163,-0.287261 0.40515,-0.433049 0.10384,-0.116615 0.20423,-0.235902 0.31161,-0.349332 0.097,-0.10687 0.19021,-0.217821 0.2961,-0.316259 0.0904,-0.08815 0.1757,-0.181168 0.2651,-0.270269 0.0674,-0.06319 0.13189,-0.129675 0.19999,-0.192236 0.0596,-0.05881 0.11228,-0.124224 0.17208,-0.182935 0.0704,-0.07452 0.14718,-0.141838 0.22428,-0.209288 0.0722,-0.06215 0.13727,-0.131871 0.20877,-0.194821 0.0768,-0.07463 0.15523,-0.147651 0.23823,-0.21549 0.063,-0.05459 0.12916,-0.105444 0.19327,-0.158647 0.0274,-0.03449 0.0546,-0.06886 0.0827,-0.102838 0.15758,-0.176927 0.32722,-0.342945 0.49351,-0.511596 0.0205,-0.02109 0.0409,-0.04212 0.0615,-0.06304 0.0103,-0.01566 0.0207,-0.03133 0.031,-0.04702 0.0498,-0.07595 0.10345,-0.132554 0.1571,-0.172085 0.039,-0.0501 0.077,-0.10078 0.11472,-0.151926 0.0936,-0.12682 0.19376,-0.194432 0.28474,-0.216009 0.10502,-0.09298 0.20862,-0.134244 0.29817,-0.137975 0.0423,-0.0019 0.0813,0.0048 0.11575,0.0186 0.11334,-0.09383 0.22235,-0.135781 0.31523,-0.140559 h 5.3e-4 c 0.28283,-0.01416 0.41585,0.320556 0.0703,0.610814 -0.0792,0.06646 -0.15865,0.132548 -0.23565,0.201538 -0.0969,0.08601 -0.19165,0.174112 -0.28318,0.265618 0.0802,-0.02405 0.16206,-0.03742 0.24133,-0.03256 0.0289,0.0019 0.0578,0.0059 0.0858,0.01291 0.12922,0.03246 0.24253,0.110204 0.3638,0.165365 0.077,0.12664 0.19099,0.237119 0.23099,0.37982 0.0719,0.256375 -0.0354,0.512127 -0.20308,0.697116 0.13207,-0.01061 0.26442,-0.01656 0.39687,-0.0186 0.51337,-0.0079 1.02849,0.04678 1.53582,0.150378 1.08595,0.250785 2.10952,0.666665 2.9683,1.396812 0.61318,0.535387 1.17143,1.120109 1.70739,1.732196 0.36807,0.394975 0.74303,0.778946 1.17254,1.110009 0.73326,0.671213 1.44395,1.372227 1.95285,2.236557 0.57943,0.886825 1.13674,1.788951 1.67018,2.704227 0.6504,1.043376 1.33611,2.067539 1.90583,3.158463 0.62947,1.325267 1.18495,2.683796 1.72599,4.047297 0.66032,1.673815 1.23786,3.377819 1.89084,5.054473 0.49969,1.214459 0.99513,2.447682 1.66915,3.576527 0.41151,0.68757 0.86747,1.345546 1.31,2.013312 0.20826,0.322114 0.42238,0.641109 0.62942,0.964282 V 41.473953 Z M 145.80092,56.320592 c -0.002,0.0011 -0.0159,0.01371 -0.0191,0.01963 -0.001,0.0019 -0.002,0.0034 -0.003,0.0052 0.007,-0.0076 0.0142,-0.01532 0.0212,-0.02326 l 5.3e-4,-5.29e-4 5.3e-4,-5.3e-4 z m 0.92501,8.314738 c 0.0512,0.07244 0.12987,0.121107 0.21032,0.163298 -0.0694,-0.06615 -0.13939,-0.122238 -0.21032,-0.163298 z m 0.2899,0.244948 -5.3e-4,5.29e-4 v 5.3e-4 h 5.3e-4 v 5.29e-4 h 5.3e-4 l 5.3e-4,5.29e-4 h 5.3e-4 5.3e-4 5.3e-4 l 5.2e-4,5.29e-4 h 5.3e-4 5.3e-4 5.3e-4 v -5.29e-4 c -5.3e-4,-5.29e-4 -0.002,-0.0016 -0.003,-0.0021 h -5.3e-4 z m 20.30316,53.300622 c -0.1154,0.59947 -0.23656,1.19785 -0.36484,1.79472 -0.1679,0.90135 -0.30463,1.808 -0.47801,2.70836 -0.28863,1.36243 -0.59207,2.7233 -0.97306,4.06332 -0.37547,1.36556 -0.86045,2.68801 -1.39062,4.00079 -0.40668,0.96617 -0.80902,1.93563 -1.24695,2.88768 -0.42181,0.9406 -0.8894,1.85848 -1.37873,2.76572 -0.20018,0.78436 -0.41163,1.56581 -0.63458,2.34405 -0.32068,1.05974 -0.1559,0.53634 -0.49403,1.56993 -0.92848,2.83819 -2.62197,4.18921 -4.19044,4.34495 -0.52505,0.61597 -1.05162,1.22891 -1.65365,1.77354 -0.57395,0.52699 -1.15608,1.04544 -1.74563,1.55494 -0.77444,0.69314 -1.58368,1.34454 -2.37763,2.01486 -0.67424,0.57565 -1.31143,1.19349 -1.97042,1.78646 -0.81846,0.81896 -1.63905,1.63581 -2.44481,2.46703 -0.83532,0.87368 -1.68445,1.74598 -2.66754,2.45618 -0.84179,0.53938 -1.72594,1.00189 -2.60036,1.48622 -1.11911,0.6072 -2.24461,1.20227 -3.40289,1.73219 -0.97477,0.45378 -1.93031,0.95098 -2.86081,1.48983 -0.98415,0.59991 -1.93543,1.2565 -2.96158,1.78594 -1.14016,0.58831 -2.31339,1.11173 -3.52536,1.53582 -1.16233,0.43805 -2.34404,0.817 -3.54552,1.13378 -0.56131,0.15498 -1.12389,0.30567 -1.68879,0.44649 h 44.59625 z m -119.728095,3.65507 c 0.0048,0.0187 0.01265,0.0374 0.02273,0.0563 -0.0059,-0.0211 -0.0131,-0.041 -0.02273,-0.0563 z m 0.40721,0.12713 v 5.3e-4 c -1.27e-4,0.001 -2.65e-4,0.003 0,0.006 0.0044,0.0311 0.02164,0.0631 0.04702,0.0816 2.65e-4,2e-4 0.0013,2.6e-4 0.0016,5.3e-4 v 5.3e-4 h 5.29e-4 v -5.3e-4 h 5.29e-4 c -0.0011,-0.002 -0.0024,-0.005 -0.0036,-0.007 -0.01204,-0.0198 -0.036,-0.0728 -0.04392,-0.0811 l -5.29e-4,-5.3e-4 v -5.3e-4 h -5.3e-4 -5.29e-4 z m 24.624337,30.99346 c -0.0409,0.005 -0.08319,0.0926 -0.111623,0.1359 -0.0016,0.004 -0.003,0.007 -0.0047,0.0109 0.06481,-0.014 0.126828,-0.0352 0.185518,-0.0651 0.0051,-0.0218 0.0087,-0.0312 0.0093,-0.0346 v -5.3e-4 -5.2e-4 -5.3e-4 h -5.29e-4 -5.29e-4 -5.3e-4 c -0.005,0.002 -0.01913,0.007 -0.04599,-0.0114 h -5.29e-4 l -5.29e-4,-5.3e-4 -5.3e-4,-5.3e-4 -5.29e-4,-5.3e-4 v -5.3e-4 c -0.0021,-0.005 -5.29e-4,-0.014 -0.0021,-0.0196 l -5.3e-4,-5.3e-4 v -5.3e-4 -5.3e-4 -5.3e-4 -5.3e-4 l -5.29e-4,-5.2e-4 h -5.29e-4 v -5.3e-4 -5.3e-4 h -5.29e-4 v -5.3e-4 c -0.0067,-0.006 -0.01378,-0.008 -0.02066,-0.008 -0.0013,-2e-5 -0.0028,-1.6e-4 -0.0041,0 z m 5.316471,9.92239 c 0.148275,0.039 0.334042,0.1616 0.428913,0.0925 -0.106047,-0.0251 -0.212301,-0.05 -0.318844,-0.0729 -0.02439,-0.005 -0.07133,-0.0132 -0.110069,-0.0196 z" /></clipPath><linearGradient
       inkscape:collect="always"
       xlink:href="#linearGradient243"
       id="linearGradient244"
       x1="139.19345"
       y1="56.378307"
       x2="47.582157"
       y2="115.49832"
       gradientUnits="userSpaceOnUse" /><filter
       inkscape:collect="always"
       style="color-interpolation-filters:sRGB"
       id="filter262"
       x="-0.087513896"
       y="-0.11515954"
       width="1.1823806"
       height="1.2360141"><feGaussianBlur
         inkscape:collect="always"
         stdDeviation="2.8079842"
         id="feGaussianBlur262" /></filter><filter
       inkscape:collect="always"
       style="color-interpolation-filters:sRGB"
       id="filter263"
       x="-0.10343033"
       y="-0.11481799"
       width="1.1982056"
       height="1.2224398"><feGaussianBlur
         inkscape:collect="always"
         stdDeviation="2.9184241"
         id="feGaussianBlur263" /></filter><filter
       inkscape:collect="always"
       style="color-interpolation-filters:sRGB"
       id="filter266"
       x="-0.37980018"
       y="-0.39071157"
       width="1.7596004"
       height="1.7814231"><feGaussianBlur
         inkscape:collect="always"
         stdDeviation="2.7911919"
         id="feGaussianBlur266" /></filter><clipPath
       clipPathUnits="userSpaceOnUse"
       id="clipPath272"><path
         id="path272"
         style="fill:#ff0000;fill-opacity:1;fill-rule:nonzero;stroke:none;stroke-width:0.264583"
         d="m 46.15584,-162.0392 c 0.01159,0.005 0.0181,0.0115 0.0217,0.0212 0.0013,-0.008 -7.94e-4,-0.0191 -0.0011,-0.0222 h 5.29e-4 v 5.3e-4 c 0.0026,0.009 0.0024,0.0181 0.0021,0.0274 0.0038,0.0159 0.0031,0.0389 0.0052,0.0749 0.0019,0.0351 0.0036,0.0703 0.0052,0.10542 0.03149,0.0128 0.0589,0.0507 0.06408,0.11421 0.0082,0.10071 0.01632,0.20143 0.02223,0.3023 0.0016,0.0312 0.0044,0.0744 0.0062,0.11628 0.0011,2.6e-4 0.0021,7.9e-4 0.0026,0.001 h 5.29e-4 v 5.3e-4 h 5.29e-4 v 5.3e-4 5.3e-4 h -5.29e-4 c -2.65e-4,1.1e-4 -0.0011,2.7e-4 -0.0016,5.3e-4 l -5.29e-4,5.3e-4 h -5.29e-4 -5.29e-4 c 0.0013,0.0299 0.0024,0.0586 0.0021,0.0816 -2.36e-4,0.0135 7.93e-4,0.0278 0,0.0413 0.003,0.0161 0.006,0.0319 0.0088,0.0481 0.0093,0.0503 0.01873,0.10065 0.02842,0.1509 h 1.149284 v -5.25033 h -1.314648 z" /></clipPath><linearGradient
       inkscape:collect="always"
       xlink:href="#linearGradient31"
       id="linearGradient439"
       gradientUnits="userSpaceOnUse"
       x1="113.59701"
       y1="85.316566"
       x2="41.482388"
       y2="129.93721" /><linearGradient
       inkscape:collect="always"
       xlink:href="#linearGradient31"
       id="linearGradient440"
       gradientUnits="userSpaceOnUse"
       x1="115.09372"
       y1="85.41011"
       x2="41.482388"
       y2="129.93721" /><linearGradient
       inkscape:collect="always"
       xlink:href="#linearGradient28"
       id="linearGradient441"
       gradientUnits="userSpaceOnUse"
       x1="135.66124"
       y1="68.70723"
       x2="17.953598"
       y2="146.85796" /><linearGradient
       inkscape:collect="always"
       xlink:href="#linearGradient20"
       id="linearGradient442"
       gradientUnits="userSpaceOnUse"
       x1="163.8006"
       y1="50.095631"
       x2="-25.36957"
       y2="166.69899" /></defs><g
     inkscape:groupmode="layer"
     id="layer2"
     inkscape:label="Wektor"
     style="display:inline"
     transform="translate(-10.556432,-23.176923)"><g
       id="g266"
       style="display:inline;mix-blend-mode:normal;filter:url(#filter266)"
       inkscape:label="crosshairposwiata"
       transform="matrix(0.36164695,0,0,0.36164695,2.0178739,11.752023)"><circle
         style="fill:#6bddd8;fill-opacity:1;paint-order:normal"
         id="circle263"
         cy="46.877407"
         cx="169.63095"
         r="1.4"
         inkscape:label="circle263" /><rect
         style="fill:#6dddd1;fill-opacity:1;stroke-width:0.264583;paint-order:normal"
         id="rect263"
         width="1.3146495"
         height="5.2503271"
         x="169.04201"
         y="38.290169"
         ry="0" /><rect
         style="display:inline;fill:#6dddd1;fill-opacity:1;stroke-width:0.264583;paint-order:normal"
         id="rect264"
         width="1.3146495"
         height="5.2503271"
         x="46.155998"
         y="-166.22409"
         ry="0"
         transform="rotate(90)" /><rect
         style="display:inline;fill:#6dddd1;fill-opacity:1;stroke-width:0.264583;paint-order:normal"
         id="rect265"
         width="1.3146495"
         height="5.2503271"
         x="46.15601"
         y="-178.61162"
         ry="0"
         transform="rotate(90)" /><rect
         style="display:inline;fill:#6dddd1;fill-opacity:1;stroke-width:0.264583;paint-order:normal"
         id="rect266"
         width="1.3146495"
         height="5.2503271"
         x="-170.35655"
         y="-55.435452"
         ry="0"
         transform="scale(-1)" /><ellipse
         style="fill:#6dddd1;fill-opacity:0;stroke:#6dddd1;stroke-width:1.665;stroke-dasharray:none;stroke-opacity:1;paint-order:normal"
         id="ellipse266"
         cx="169.66605"
         cy="46.924179"
         rx="6.1505394"
         ry="6.2557778" /></g><path
       style="display:inline;mix-blend-mode:normal;fill:#ffffff;fill-opacity:0;fill-rule:evenodd;stroke:#4bd6d2;stroke-width:3.965;stroke-linecap:square;stroke-dasharray:none;stroke-opacity:1;paint-order:normal;filter:url(#filter263)"
       d="m 70.532428,152.66435 c 0,0 23.386082,17.96051 50.888112,9.35443 27.50204,-8.60607 35.92103,-28.43747 35.92103,-28.43747 0,0 15.15418,-23.57317 3.18051,-52.759006"
       id="path263"
       inkscape:label="półokrą turks - poswiata"
       transform="matrix(0.36164695,0,0,0.36164695,2.0178739,11.752023)" /><path
       style="display:inline;fill:#ffffff;fill-opacity:0;fill-rule:evenodd;stroke:#9fe45f;stroke-width:3.565;stroke-linecap:square;stroke-dasharray:none;stroke-opacity:1;paint-order:normal;filter:url(#filter262)"
       d="m 47.624999,117.73958 c 0,0 -6.652582,-23.259804 6.069449,-44.213735 12.722029,-20.953931 33.67596,-27.502032 36.108111,-27.876212 2.432153,-0.374176 28.063301,-8.418988 53.507361,11.599498"
       id="path262"
       inkscape:label="półokrąg ziel - poswiata"
       transform="matrix(0.36164695,0,0,0.36164695,2.0178739,11.752023)" /><g
       id="path29"
       style="display:inline;opacity:1;fill:url(#linearGradient440)"
       inkscape:label="wzgorze"
       transform="matrix(0.36164695,0,0,0.36164695,2.0178739,11.752023)"><path
         style="baseline-shift:baseline;display:inline;overflow:visible;opacity:1;vector-effect:none;fill:url(#linearGradient439);stroke-linecap:square;enable-background:accumulate;stop-color:#000000;stop-opacity:1"
         d="m 106.48828,77.316016 -10.137026,14.057545 -7.456209,0.438939 -11.924034,12.8381 -10.212274,-3.80089 -12.319045,13.60708 -7.614562,8.8966 -8.344222,9.25236 c 9.975447,-7.55015 14.534299,-12.22946 19.931239,-17.31426 l 9.715011,-9.65035 9.99815,3.98417 12.631168,-13.695418 7.745271,-0.214838 8.925983,-12.099816 6.56289,4.9056 1.65365,1.252864 2.63802,-3.75573 -1.62252,-1.186718 z"
         id="path31"
         sodipodi:nodetypes="ccccccccccccccccccc" /></g><g
       id="path25"
       style="display:inline;opacity:1"
       inkscape:label="neib"
       transform="matrix(0.36164695,0,0,0.36164695,2.0178739,11.752023)"><path
         style="baseline-shift:baseline;display:inline;overflow:visible;vector-effect:none;fill:url(#linearGradient441);enable-background:accumulate;stop-color:#000000;stop-opacity:1"
         d="m 145.36802,62.804017 c 0.43331,-0.166152 -4.93894,1.03664 -11.37659,4.170051 -2.34045,1.139173 -4.41294,3.437038 -6.90975,5.764981 -5.77923,5.388357 -8.57134,9.789849 -10.40095,12.323842 -6.10849,8.460209 -9.89001,14.231232 -16.63125,21.542709 -7.806515,8.46684 -18.063659,16.45156 -33.984102,23.1884 -15.245448,6.45121 -33.20659,7.989 -33.225644,7.85562 l -9.229531,0.76789 c 1.096456,0.65016 27.432196,1.26171 44.094058,-5.44372 16.428284,-6.61143 27.092647,-12.81804 35.986499,-23.20673 12.7071,-14.842834 13.84414,-18.218007 16.65235,-21.916409 2.94266,-3.875469 8.27339,-11.286978 12.7454,-15.667365 2.24213,-2.196194 5.86784,-4.735496 8.00144,-5.888775 18.82849,-10.177404 2.31774,-2.128393 3.01521,-2.124306 z"
         id="path27"
         sodipodi:nodetypes="csssssccssssscc" /></g><g
       id="path2"
       inkscape:label="ziel"
       style="display:inline;opacity:1;stroke-width:1.00098;stroke-dasharray:none"
       transform="matrix(0.36164695,0,0,0.36164695,2.0178739,11.752023)"><path
         style="baseline-shift:baseline;display:inline;overflow:visible;fill:url(#linearGradient9);stroke-width:1.00098;stroke-linecap:round;stroke-dasharray:none;enable-background:accumulate;stop-color:#000000;stop-opacity:1"
         d="m 177.48895,57.837286 c 0.6651,0.0016 -1.54178,-0.435577 -8.37838,2.907787 -6.47049,3.164323 -13.4145,10.50963 -20.11062,22.90163 -13.07247,24.192217 -17.27455,33.446997 -37.65229,48.036887 -21.924066,15.69702 -42.485311,17.62196 -42.660563,17.5704 -0.399867,-0.0287 -4.451964,0.90719 -6.571595,0.96664 1.6846,0.33153 11.412727,-0.37035 13.41471,-0.57044 4.156299,-0.86244 19.114083,-1.58585 38.487258,-14.45344 19.61569,-13.02867 26.78555,-25.17416 39.39073,-49.743625 6.11603,-11.921095 12.55864,-19.617392 18.07736,-22.856585 5.19406,-3.048637 1.59971,-1.14667 6.04594,-3.529515 1.22192,-0.599305 3.4428,-1.158717 4.1211,-1.356149 -2.06952,-0.09592 -2.96032,0.01591 -3.59654,0.0504 z"
         id="path5"
         sodipodi:nodetypes="cssscccssscccc"
         inkscape:label="path5" /></g><g
       id="path18"
       inkscape:label="turk"
       style="display:inline;opacity:1"
       transform="matrix(0.36164695,0,0,0.36164695,2.0178739,11.752023)"><path
         style="baseline-shift:baseline;display:inline;overflow:visible;vector-effect:none;fill:url(#linearGradient442);stroke-linecap:round;enable-background:accumulate;stop-color:#000000;stop-opacity:1"
         d="m 155.40487,49.360883 c -9.23459,6.434382 -11.72383,14.22696 -14.11402,17.616543 -0.0588,0.105706 -0.58427,1.031803 -0.66819,1.175439 -0.18541,0.317322 -0.59131,0.917067 -0.86159,1.409374 -0.54055,0.984615 -1.34246,2.374615 -2.20574,3.983204 -1.72654,3.217178 -4.26382,8.360183 -6.75023,12.968279 -5.2344,9.700986 -11.59111,18.724818 -15.81564,23.324948 -9.45998,10.30106 -17.551545,19.97399 -41.25196,28.25886 -23.008917,8.04314 -41.938598,4.18015 -42.003283,4.76231 -1.079233,-0.11151 -4.747577,-0.5338 -5.516958,-0.62407 4.738626,1.31031 9.196434,2.11331 10.227069,2.38517 0.734054,-0.53975 16.150554,3.94163 39.69018,-3.28839 24.062092,-7.39049 32.852852,-17.90459 42.735022,-28.16185 5.10446,-5.2982 11.1126,-15.005032 16.26627,-24.224155 2.57683,-4.609562 5.45915,-10.944799 7.18608,-14.162691 0.86346,-1.608946 1.48199,-3.027788 2.00429,-3.979167 0.26115,-0.475689 0.47354,-0.857405 0.62305,-1.113281 0.14951,-0.255875 0.42672,-0.552524 0.0742,-0.167969 l 0.25,-0.271484 0.14258,-0.341797 c 2.1955,-3.347529 6.25946,-13.055848 15.14075,-19.708593 0.76191,-0.60354 3.82715,-2.362901 5.30912,-2.441667 0.16688,-0.266475 -5.0064,-0.164491 -5.74896,0.08177 -2.6626,0.883018 -2.90578,1.260671 -4.71204,2.519217 z"
         id="path20"
         sodipodi:nodetypes="scsssssscccsssssscccccss"
         inkscape:label="path20" /></g><g
       id="g25"
       style="display:inline"
       inkscape:label="crosshair"
       transform="matrix(0.36164695,0,0,0.36164695,2.0896379,11.931433)"><circle
         style="fill:#6bddd8;fill-opacity:1;paint-order:normal"
         id="path21"
         cy="46.877407"
         cx="169.63095"
         r="1.4" /><rect
         style="fill:#6dddd1;fill-opacity:1;stroke-width:0.264583;paint-order:normal"
         id="rect22"
         width="1.3146495"
         height="5.2503271"
         x="169.04201"
         y="38.290169"
         ry="0" /><rect
         style="display:inline;fill:#6dddd1;fill-opacity:1;stroke-width:0.264583;paint-order:normal"
         id="rect22-2"
         width="1.3146495"
         height="5.2503271"
         x="46.155998"
         y="-166.22409"
         ry="0"
         transform="rotate(90)"
         clip-path="url(#clipPath272)" /><rect
         style="display:inline;fill:#6dddd1;fill-opacity:1;stroke-width:0.264583;paint-order:normal"
         id="rect22-5"
         width="1.3146495"
         height="5.2503271"
         x="46.15601"
         y="-178.61162"
         ry="0"
         transform="rotate(90)" /><rect
         style="display:inline;fill:#6dddd1;fill-opacity:1;stroke-width:0.264583;paint-order:normal"
         id="rect22-5-1"
         width="1.3146495"
         height="5.2503271"
         x="-170.35655"
         y="-55.435452"
         ry="0"
         transform="scale(-1)" /><ellipse
         style="fill:#6dddd1;fill-opacity:0;stroke:#6dddd1;stroke-width:1.665;stroke-dasharray:none;stroke-opacity:1;paint-order:normal"
         id="path24"
         cx="169.66605"
         cy="46.924179"
         rx="6.1505394"
         ry="6.2557778" /></g><ellipse
       style="display:inline;fill:#ff0000;fill-opacity:0;fill-rule:evenodd;stroke:url(#linearGradient190);stroke-width:4.365;stroke-dasharray:none"
       id="path33"
       clip-path="url(#clipPath188)"
       ry="60.24255"
       rx="59.681282"
       cy="104.02129"
       cx="105.51801"
       inkscape:label="polokrag turk"
       transform="matrix(0.36164695,0,0,0.36164695,2.0178739,11.752023)" /><ellipse
       style="display:inline;fill:#ff0000;fill-opacity:0;fill-rule:evenodd;stroke:url(#linearGradient244);stroke-width:4.32383;stroke-dasharray:none"
       id="path190"
       cx="105.45491"
       cy="103.89874"
       rx="59.702084"
       ry="60.263081"
       clip-path="url(#clipPath241)"
       inkscape:label="polokrag ziel"
       transform="matrix(0.36164695,0,0,0.36164695,2.0178739,11.752023)" /><g
       id="g255"
       inkscape:label="sat cent"
       transform="matrix(0.36164695,0,0,0.36164695,2.0178739,11.752023)"><circle
         style="fill:#5ae1d0;fill-opacity:1;fill-rule:evenodd;stroke:#6cd2c4;stroke-width:0.264583;stroke-opacity:1"
         id="path244"
         cx="131.75719"
         cy="70.462265"
         r="2.525697" /><rect
         style="fill:#5ae1d0;fill-opacity:1;fill-rule:evenodd;paint-order:normal"
         id="rect244"
         width="3.9167705"
         height="6.6085725"
         x="62.392773"
         y="125.15339"
         ry="1.9583852"
         transform="rotate(-36.166283)"
         inkscape:transform-center-x="2.4321527"
         inkscape:transform-center-y="0.023386084" /><rect
         style="fill:#5ae1d0;fill-opacity:1;fill-rule:evenodd;stroke-width:0.264583;paint-order:normal"
         id="rect246"
         width="1.268695"
         height="1.268695"
         x="125.60081"
         y="66.170921"
         ry="0.6343475" /><ellipse
         style="fill:#5ae1d0;fill-opacity:1;fill-rule:evenodd;stroke-width:0.264583"
         id="path246"
         cx="67.569496"
         cy="121.93123"
         rx="1.2733073"
         ry="0.78961587"
         transform="rotate(-34.54276)"
         inkscape:transform-center-x="-0.21739885"
         inkscape:transform-center-y="0.32094829" /><path
         style="display:inline;fill:#ffffff;fill-opacity:0;fill-rule:evenodd;stroke:#5ae1d0;stroke-width:1.165;stroke-linecap:round;stroke-dasharray:none;stroke-opacity:1;paint-order:normal"
         d="m 122.48461,62.791633 c 0,0 0.43264,-3.051884 3.41437,-2.6894"
         id="path247" /></g><g
       id="g249"
       inkscape:label="panel r"
       transform="matrix(0.36164695,0,0,0.36164695,2.0178739,11.752023)"><rect
         style="fill:#5ae1d0;fill-opacity:1;fill-rule:evenodd;stroke:#ffffff;stroke-width:0.793466;stroke-linecap:round;stroke-dasharray:none;stroke-opacity:0;paint-order:normal"
         id="rect247"
         width="2.2627089"
         height="1.8541085"
         x="70.128326"
         y="124.00682"
         ry="0.92705423"
         transform="matrix(0.82216359,-0.56925129,0.59395247,0.80450014,0,0)"
         inkscape:transform-center-x="0.42336124"
         inkscape:transform-center-y="-0.011081115" /><rect
         style="display:inline;fill:#5ae1d0;fill-opacity:1;fill-rule:evenodd;stroke:#ffffff;stroke-width:0.793466;stroke-linecap:round;stroke-dasharray:none;stroke-opacity:0;paint-order:normal"
         id="rect247-2"
         width="2.2627089"
         height="1.8541085"
         x="67.878578"
         y="124.12723"
         ry="0.92705423"
         transform="matrix(0.82216359,-0.56925129,0.59395247,0.80450014,0,0)"
         inkscape:transform-center-x="0.42336124"
         inkscape:transform-center-y="-0.011081115" /><rect
         style="display:inline;fill:#5ae1d0;fill-opacity:1;fill-rule:evenodd;stroke:#ffffff;stroke-width:0.793466;stroke-linecap:round;stroke-dasharray:none;stroke-opacity:0;paint-order:normal"
         id="rect247-2-3"
         width="2.2627089"
         height="1.8541085"
         x="70.183533"
         y="125.85068"
         ry="0.92705423"
         transform="matrix(0.82216359,-0.56925129,0.59395247,0.80450014,0,0)"
         inkscape:transform-center-x="0.42336124"
         inkscape:transform-center-y="-0.011081115" /><rect
         style="display:inline;fill:#5ae1d0;fill-opacity:1;fill-rule:evenodd;stroke:#ffffff;stroke-width:0.793466;stroke-linecap:round;stroke-dasharray:none;stroke-opacity:0;paint-order:normal"
         id="rect247-2-3-4"
         width="2.2627089"
         height="1.8541085"
         x="67.946968"
         y="125.95362"
         ry="0.92705423"
         transform="matrix(0.82216359,-0.56925129,0.59395247,0.80450014,0,0)"
         inkscape:transform-center-x="0.42336124"
         inkscape:transform-center-y="-0.011081115" /><rect
         style="fill:#5ae1d0;fill-opacity:1;fill-rule:evenodd;stroke:#ffffff;stroke-width:1.165;stroke-linecap:round;stroke-dasharray:none;stroke-opacity:0;paint-order:normal"
         id="rect248"
         width="1.5875"
         height="1.8686198"
         x="61.232029"
         y="128.79855"
         rx="0.78561437"
         ry="0.9343099"
         transform="rotate(-38.685293)"
         inkscape:transform-center-x="-0.090950521"
         inkscape:transform-center-y="0.42167969" /><rect
         style="display:inline;fill:#5ae1d0;fill-opacity:1;fill-rule:evenodd;stroke:#ffffff;stroke-width:1.165;stroke-linecap:round;stroke-dasharray:none;stroke-opacity:0;paint-order:normal"
         id="rect248-9"
         width="1.5875"
         height="1.8686198"
         x="61.213737"
         y="130.65315"
         rx="0.78561437"
         ry="0.9343099"
         transform="rotate(-38.685293)"
         inkscape:transform-center-x="-0.090950521"
         inkscape:transform-center-y="0.42167969" /></g><g
       id="g254"
       transform="matrix(-0.08346526,0.3518836,0.3518836,0.08346526,35.7639,-14.846458)"
       inkscape:label="panel l"><rect
         style="fill:#5ae1d0;fill-opacity:1;fill-rule:evenodd;stroke:#ffffff;stroke-width:0.793466;stroke-linecap:round;stroke-dasharray:none;stroke-opacity:0;paint-order:normal"
         id="rect249"
         width="2.2627089"
         height="1.8541085"
         x="70.128326"
         y="124.00682"
         ry="0.92705423"
         transform="matrix(0.82216359,-0.56925129,0.59395247,0.80450014,0,0)"
         inkscape:transform-center-x="0.42336124"
         inkscape:transform-center-y="-0.011081115" /><rect
         style="display:inline;fill:#5ae1d0;fill-opacity:1;fill-rule:evenodd;stroke:#ffffff;stroke-width:0.793466;stroke-linecap:round;stroke-dasharray:none;stroke-opacity:0;paint-order:normal"
         id="rect250"
         width="2.2627089"
         height="1.8541085"
         x="67.878578"
         y="124.12723"
         ry="0.92705423"
         transform="matrix(0.82216359,-0.56925129,0.59395247,0.80450014,0,0)"
         inkscape:transform-center-x="0.42336124"
         inkscape:transform-center-y="-0.011081115" /><rect
         style="display:inline;fill:#5ae1d0;fill-opacity:1;fill-rule:evenodd;stroke:#ffffff;stroke-width:0.793466;stroke-linecap:round;stroke-dasharray:none;stroke-opacity:0;paint-order:normal"
         id="rect251"
         width="2.2627089"
         height="1.8541085"
         x="70.183533"
         y="125.85068"
         ry="0.92705423"
         transform="matrix(0.82216359,-0.56925129,0.59395247,0.80450014,0,0)"
         inkscape:transform-center-x="0.42336124"
         inkscape:transform-center-y="-0.011081115" /><rect
         style="display:inline;fill:#5ae1d0;fill-opacity:1;fill-rule:evenodd;stroke:#ffffff;stroke-width:0.793466;stroke-linecap:round;stroke-dasharray:none;stroke-opacity:0;paint-order:normal"
         id="rect252"
         width="2.2627089"
         height="1.8541085"
         x="67.946968"
         y="125.95362"
         ry="0.92705423"
         transform="matrix(0.82216359,-0.56925129,0.59395247,0.80450014,0,0)"
         inkscape:transform-center-x="0.42336124"
         inkscape:transform-center-y="-0.011081115" /><rect
         style="fill:#5ae1d0;fill-opacity:1;fill-rule:evenodd;stroke:#ffffff;stroke-width:1.165;stroke-linecap:round;stroke-dasharray:none;stroke-opacity:0;paint-order:normal"
         id="rect253"
         width="1.5875"
         height="1.8686198"
         x="61.232029"
         y="128.79855"
         rx="0.78561437"
         ry="0.9343099"
         transform="rotate(-38.685293)"
         inkscape:transform-center-x="-0.090950521"
         inkscape:transform-center-y="0.42167969" /><rect
         style="display:inline;fill:#5ae1d0;fill-opacity:1;fill-rule:evenodd;stroke:#ffffff;stroke-width:1.165;stroke-linecap:round;stroke-dasharray:none;stroke-opacity:0;paint-order:normal"
         id="rect254"
         width="1.5875"
         height="1.8686198"
         x="61.213737"
         y="130.65315"
         rx="0.78561437"
         ry="0.9343099"
         transform="rotate(-38.685293)"
         inkscape:transform-center-x="-0.090950521"
         inkscape:transform-center-y="0.42167969" /></g><text
       xml:space="preserve"
       style="font-style:normal;font-variant:normal;font-weight:275;font-stretch:normal;font-size:3.175px;font-family:Montserrat;-inkscape-font-specification:'Montserrat weight=275';text-align:start;writing-mode:lr-tb;direction:ltr;text-anchor:start;display:inline;fill:#000000;fill-opacity:0;fill-rule:evenodd;stroke:#5ae1d0;stroke-width:3.96499;stroke-linecap:square;stroke-dasharray:none;stroke-opacity:0;paint-order:normal"
       x="47.492706"
       y="192.21979"
       id="text435"><tspan
         sodipodi:role="line"
         id="tspan435"
         style="fill:#000000;fill-opacity:0;stroke:#5ae1d0;stroke-width:3.965;stroke-opacity:0"
         x="47.492706"
         y="192.21979" /></text><text
       xml:space="preserve"
       style="font-style:normal;font-variant:normal;font-weight:275;font-stretch:normal;font-size:24.6944px;font-family:Montserrat;-inkscape-font-specification:'Montserrat weight=275';text-align:start;writing-mode:lr-tb;direction:ltr;text-anchor:start;fill:#000000;fill-opacity:1;fill-rule:evenodd;stroke:#5ae1d0;stroke-width:3.96499;stroke-linecap:square;stroke-dasharray:none;stroke-opacity:0;paint-order:normal"
       x="72.326874"
       y="58.436974"
       id="text436"><tspan
         id="tspan436"
         style="font-style:normal;font-variant:normal;font-weight:800;font-stretch:normal;font-size:24.6944px;font-family:Montserrat;-inkscape-font-specification:'Montserrat Ultra-Bold';fill:#ffffff;fill-opacity:1;stroke-width:3.965"
         x="72.326874"
         y="58.436974"
         sodipodi:role="line">VOLATUS</tspan></text></g><path
     style="fill:#b0ee55;fill-opacity:0;stroke-width:0.0956856;paint-order:normal"
     d="m 51.265039,5.5593179 c 0,0 -2.416066,-0.98078 -7.200351,6.0760511 -4.784289,7.05682 -6.019303,15.50595 -15.99916,22.67792 -9.979858,7.17197 -22.2272999,7.2478 -27.08335205,5.76467"
     id="path17" /></svg>
